# xmcd CD database file
#
# Track frame offsets:
#	150
#	14839
#	32512
#	45666
#	62418
#	78139
#	99171
#	116696
#	133509
#	153032
#
# Disc length: 2383 seconds
#
# Revision: 0
# Processed by: cddbd v1.5.1PL0 Copyright (c) Steve Scherf et al.
# Submitted via: CDex 1.51
#
DISCID=6c094d0a
DTITLE=Son of Roy and the Funky Country Cats - Let Out the Rain - A Tribute to June and Johnny
DYEAR=2005
DGENRE=Country
TTITLE0=Dog and My Phone
TTITLE1=Lonesome Heart Attack
TTITLE2=Let Out the Rain
TTITLE3=Booted from the Bluebird
TTITLE4=Ain't No Cowboy
TTITLE5=Handshakes
TTITLE6=Ol' Joe
TTITLE7=Hard Love
TTITLE8=Barstool
TTITLE9=Lay the Weapons Down
EXTD=YEAR: 2005
EXTT0=
EXTT1=
EXTT2=
EXTT3=
EXTT4=
EXTT5=
EXTT6=
EXTT7=
EXTT8=
EXTT9=
PLAYORDER=
